<svg width="43" height="41" viewBox="0 0 43 41" fill="none" xmlns="http://www.w3.org/2000/svg">
<g clip-path="url(#clip0_161_476)">
<path d="M4.24052 36.9071L0.125864 14.6328C0.0861338 14.4178 0.061367 14.2005 0.0517265 13.9824C-0.00942322 11.4571 1.89233 9.27571 4.50742 8.87156L12.4476 7.53552L12.2326 36.9071H4.24052Z" fill="#27A857"/>
<path d="M34.8001 35.9315C34.6624 36.4766 34.2 36.8925 33.6213 36.9919L10.2531 40.9222C8.78015 41.1674 7.26784 40.7959 6.10251 39.9027C4.93719 39.0095 4.23172 37.681 4.16634 36.2567C4.10795 33.8423 5.85133 31.7266 8.32548 31.2095L14.8719 32.9626H14.8644L8.97048 33.9593C8.31313 34.0695 7.74221 34.4548 7.41479 35.0094C7.08738 35.5639 7.03796 36.2292 7.28013 36.8222C7.69947 37.7774 8.76449 38.3205 9.83048 38.1229L27.6903 35.1186L34.8001 35.9315Z" fill="#218D49"/>
<path d="M14.8643 32.9625L8.97036 33.9592C8.31301 34.0694 7.74209 34.4548 7.41467 35.0093C7.08725 35.5639 7.03784 36.2292 7.28001 36.8222C7.69935 37.7773 8.76437 38.3205 9.83036 38.1229L27.6902 35.1186L14.8643 32.9625Z" fill="white"/>
<path d="M9.50891 23.4484L13.6288 1.17129C13.7762 0.405544 14.5415 -0.105233 15.3465 0.0247009L38.5347 3.92324C41.1516 4.3277 43.0549 6.51048 42.9941 9.03763C42.984 9.25477 42.9592 9.47106 42.9199 9.68515L38.8001 31.9623L9.50891 23.4484Z" fill="#EB763C"/>
<path d="M33.6866 7.40399C33.6432 7.40397 33.5998 7.40042 33.5569 7.39338L16.7639 4.57004C16.3849 4.48092 16.1433 4.1269 16.2114 3.76043C16.2795 3.39396 16.6339 3.14059 17.0219 3.18099L33.8142 6.0008C34.1929 6.06406 34.458 6.39288 34.4249 6.75811C34.3917 7.12335 34.0711 7.40378 33.6866 7.40399Z" fill="white"/>
<path d="M30.1222 10.3913C30.0787 10.3914 30.0352 10.3876 29.9925 10.38L19.0408 8.54138C18.6468 8.46519 18.3882 8.10343 18.458 7.7259C18.5278 7.34837 18.9005 7.09267 19.2981 7.1495L30.2505 8.98743C30.6314 9.04881 30.899 9.37882 30.8655 9.74579C30.832 10.1128 30.5085 10.3937 30.1222 10.3913Z" fill="white"/>
<path d="M31.6699 13.5487L16.3345 10.9657C15.9312 10.8977 15.5465 11.1544 15.4752 11.5389L14.1852 18.5019C14.114 18.8864 14.3832 19.2532 14.7865 19.3212L30.1219 21.9042C30.5253 21.9721 30.91 21.7154 30.9812 21.3309L32.2712 14.3679C32.3424 13.9834 32.0733 13.6166 31.6699 13.5487Z" fill="#ECF0F1"/>
<path d="M42.9924 9.03406C42.9836 9.25222 42.9588 9.46953 42.9183 9.6844L38.7962 31.9587L33.0802 30.2975L36.3942 12.3847L37.18 8.15751L37.9807 3.8313L38.5367 3.9232C41.1506 4.32934 43.0513 6.50949 42.9924 9.03406Z" fill="#E75D18"/>
<path d="M34.4147 26.1976L11.2244 22.3026C11.1386 22.2885 11.0518 22.2814 10.9649 22.2814C10.1965 22.2832 9.55685 22.8445 9.49128 23.5745C9.42571 24.3045 9.95591 24.9613 10.7128 25.0878L34.0737 29.011C34.7304 29.1244 35.2996 29.5119 35.6253 30.0674C35.9511 30.6229 35.9992 31.2881 35.7566 31.881C35.3395 32.834 34.2761 33.375 33.2137 33.1746L9.94177 29.2655C9.85606 29.2514 9.76925 29.2443 9.68228 29.2443C8.91245 29.2425 8.26921 29.8027 8.2016 30.5339C8.13399 31.2651 8.66451 31.924 9.4228 32.0507L32.7911 35.974C34.2629 36.22 35.7746 35.8498 36.9399 34.9579C38.1052 34.066 38.8113 32.7389 38.8778 31.3155C38.936 28.7873 37.0324 26.6043 34.4147 26.1976Z" fill="#B94A13"/>
<path d="M35.7567 31.881C35.3396 32.8341 34.2762 33.375 33.2138 33.1747L9.94189 29.2655L10.7129 25.0878L34.0738 29.011C34.7306 29.1244 35.2997 29.5119 35.6255 30.0674C35.9512 30.6229 35.9993 31.2882 35.7567 31.881Z" fill="white"/>
</g>
<defs>
<clipPath id="clip0_161_476">
<rect width="43" height="41" fill="white"/>
</clipPath>
</defs>
</svg>
