<svg width="31" height="33" viewBox="0 0 31 33" fill="none" xmlns="http://www.w3.org/2000/svg">
<path fill-rule="evenodd" clip-rule="evenodd" d="M4.4118 0.548828H9.50146C11.6247 0.548828 13.3262 2.38234 13.3262 4.63198V10.0672C13.3262 12.3311 11.6247 14.1487 9.50146 14.1487H4.4118C2.30366 14.1487 0.587036 12.3311 0.587036 10.0672V4.63198C0.587036 2.38234 2.30366 0.548828 4.4118 0.548828ZM4.4118 18.8357H9.50146C11.6247 18.8357 13.3262 20.6548 13.3262 22.9188V28.354C13.3262 30.602 11.6247 32.4355 9.50146 32.4355H4.4118C2.30366 32.4355 0.587036 30.602 0.587036 28.354V22.9188C0.587036 20.6548 2.30366 18.8357 4.4118 18.8357ZM26.8787 0.548828H21.789C19.6658 0.548828 17.9643 2.38234 17.9643 4.63198V10.0672C17.9643 12.3311 19.6658 14.1487 21.789 14.1487H26.8787C28.9868 14.1487 30.7035 12.3311 30.7035 10.0672V4.63198C30.7035 2.38234 28.9868 0.548828 26.8787 0.548828ZM21.789 18.8357H26.8787C28.9868 18.8357 30.7035 20.6548 30.7035 22.9188V28.354C30.7035 30.602 28.9868 32.4355 26.8787 32.4355H21.789C19.6658 32.4355 17.9643 30.602 17.9643 28.354V22.9188C17.9643 20.6548 19.6658 18.8357 21.789 18.8357Z" fill="#ABB5BA"/>
</svg>
