<svg width="16" height="14" viewBox="0 0 16 14" fill="none" xmlns="http://www.w3.org/2000/svg">
<path fill-rule="evenodd" clip-rule="evenodd" d="M0 1.25008C0 0.720808 0.429061 0.291748 0.958333 0.291748H15.0417C15.5709 0.291748 16 0.720808 16 1.25008C16 1.77935 15.5709 2.20841 15.0417 2.20841H0.958334C0.429061 2.20841 0 1.77935 0 1.25008ZM0 7C0 6.47073 0.429061 6.04167 0.958333 6.04167H15.0417C15.5709 6.04167 16 6.47073 16 7C16 7.52927 15.5709 7.95833 15.0417 7.95833H0.958334C0.429061 7.95833 0 7.52927 0 7ZM0.958333 11.7917C0.429061 11.7917 0 12.2207 0 12.75C0 13.2793 0.429061 13.7083 0.958334 13.7083H15.0417C15.5709 13.7083 16 13.2793 16 12.75C16 12.2207 15.5709 11.7917 15.0417 11.7917H0.958333Z" fill="#695E5E"/>
</svg>
