<svg width="37" height="39" viewBox="0 0 37 39" fill="none" xmlns="http://www.w3.org/2000/svg">
<path d="M14.3308 33.8468V28.9716C14.3308 27.7272 15.2906 26.7183 16.4746 26.7183H20.8026C21.3711 26.7183 21.9164 26.9557 22.3184 27.3783C22.7205 27.8009 22.9463 28.374 22.9463 28.9716V33.8468C22.9427 34.3641 23.1358 34.8616 23.4826 35.2288C23.8293 35.596 24.3012 35.8025 24.7935 35.8025H27.7462C29.1252 35.8062 30.449 35.233 31.4254 34.2094C32.4018 33.1858 32.9506 31.7958 32.9506 30.3463V16.4579C32.9505 15.287 32.4568 14.1763 31.6023 13.4251L21.5576 4.99286C19.8103 3.5144 17.3068 3.56214 15.6117 5.10624L5.79623 13.4251C4.90137 14.1542 4.36652 15.2681 4.34009 16.4579V30.3321C4.34009 33.3533 6.67016 35.8025 9.54444 35.8025H12.4298C13.4521 35.8025 14.283 34.9355 14.2904 33.8609L14.3308 33.8468Z" fill="#EB763C"/>
</svg>
