<svg width="16" height="16" viewBox="0 0 16 16" fill="none" xmlns="http://www.w3.org/2000/svg">
<path d="M7.33341 7.99996C7.33341 8.36815 7.63189 8.66663 8.00008 8.66663C8.36827 8.66663 8.66675 8.36815 8.66675 7.99996C8.66675 7.63177 8.36827 7.33329 8.00008 7.33329C7.63189 7.33329 7.33341 7.63177 7.33341 7.99996Z" stroke="#7F7F7F" stroke-width="2" stroke-linecap="round" stroke-linejoin="round"/>
<path d="M7.33341 12.6666C7.33341 13.0348 7.63189 13.3333 8.00008 13.3333C8.36827 13.3333 8.66675 13.0348 8.66675 12.6666C8.66675 12.2984 8.36827 12 8.00008 12C7.63189 12 7.33341 12.2984 7.33341 12.6666Z" stroke="#7F7F7F" stroke-width="2" stroke-linecap="round" stroke-linejoin="round"/>
<path d="M7.33341 3.33329C7.33341 3.70148 7.63189 3.99996 8.00008 3.99996C8.36827 3.99996 8.66675 3.70148 8.66675 3.33329C8.66675 2.9651 8.36827 2.66663 8.00008 2.66663C7.63189 2.66663 7.33341 2.9651 7.33341 3.33329Z" stroke="#7F7F7F" stroke-width="2" stroke-linecap="round" stroke-linejoin="round"/>
</svg>
