<svg width="16" height="16" viewBox="0 0 16 16" fill="none" xmlns="http://www.w3.org/2000/svg">
<path d="M7.33341 8.00008C7.33341 8.36827 7.63189 8.66675 8.00008 8.66675C8.36827 8.66675 8.66675 8.36827 8.66675 8.00008C8.66675 7.63189 8.36827 7.33341 8.00008 7.33341C7.63189 7.33341 7.33341 7.63189 7.33341 8.00008Z" stroke="#7F7F7F" stroke-width="2" stroke-linecap="round" stroke-linejoin="round"/>
<path d="M7.33341 12.6667C7.33341 13.0349 7.63189 13.3334 8.00008 13.3334C8.36827 13.3334 8.66675 13.0349 8.66675 12.6667C8.66675 12.2986 8.36827 12.0001 8.00008 12.0001C7.63189 12.0001 7.33341 12.2986 7.33341 12.6667Z" stroke="#7F7F7F" stroke-width="2" stroke-linecap="round" stroke-linejoin="round"/>
<path d="M7.33341 3.33341C7.33341 3.7016 7.63189 4.00008 8.00008 4.00008C8.36827 4.00008 8.66675 3.7016 8.66675 3.33341C8.66675 2.96522 8.36827 2.66675 8.00008 2.66675C7.63189 2.66675 7.33341 2.96522 7.33341 3.33341Z" stroke="#7F7F7F" stroke-width="2" stroke-linecap="round" stroke-linejoin="round"/>
</svg>
