<svg width="43" height="41" viewBox="0 0 43 41" fill="none" xmlns="http://www.w3.org/2000/svg">
<path d="M40.9194 9.59448H2.08065C0.933343 9.59448 0 10.4844 0 11.5784V33.4009C0 34.4949 0.933343 35.3848 2.08065 35.3848H40.9194C42.0667 35.3848 43 34.4949 43 33.4009V11.5784C43 10.4844 42.0667 9.59448 40.9194 9.59448Z" fill="#EB763C"/>
<path d="M23.5805 32.0784H19.4192V35.3848H23.5805V32.0784Z" fill="#E3001E"/>
<path d="M40.2448 30.0945V32.0783C40.2448 32.4435 39.9343 32.7396 39.5513 32.7396H3.48676C3.10375 32.7396 2.79321 32.4435 2.79321 32.0783V30.0945L6.93552 28.1106L23.5807 28.7719L37.4516 28.1106L40.2448 30.0945Z" fill="#C1C9D7"/>
<path d="M3.76626 31.0075C9.46541 28.7642 15.9106 28.9007 21.519 31.417V7.61059C15.7257 5.01131 9.03957 4.95138 3.20509 7.43072C2.95403 7.53744 2.79321 7.77972 2.79321 8.04184V30.403C2.79321 30.8807 3.30323 31.1898 3.76626 31.0075Z" fill="#DADFE7"/>
<path d="M21.519 31.417C27.1274 28.9007 33.5727 28.7642 39.2718 31.0075C39.7348 31.1898 40.2449 30.8807 40.2449 30.403V8.04184C40.2449 7.77972 40.084 7.53744 39.833 7.43072C33.9985 4.95138 27.3123 5.01131 21.519 7.61059V31.417Z" fill="#E8EBF0"/>
<path d="M24.2932 27.0984C23.998 27.0984 23.7243 26.9175 23.6315 26.635C23.5171 26.2866 23.7202 25.9153 24.0853 25.8059C24.787 25.5957 25.5089 25.4161 26.2316 25.2718C26.6055 25.1969 26.974 25.4251 27.0525 25.7833C27.1311 26.1407 26.8914 26.4911 26.5161 26.566C25.8374 26.7017 25.1595 26.8706 24.5011 27.0678C24.432 27.0884 24.3616 27.0984 24.2932 27.0984Z" fill="#CAC9CF"/>
<path d="M37.4705 27.0984C37.4021 27.0984 37.3317 27.0884 37.2626 27.0677C34.6456 26.2841 31.933 25.9905 29.2028 26.1978C28.8154 26.2243 28.4869 25.9547 28.4565 25.5908C28.4267 25.2266 28.7112 24.9082 29.0932 24.8791C32.0069 24.6608 34.8922 24.9715 37.6785 25.8059C38.0436 25.9153 38.2468 26.2866 38.1323 26.635C38.0394 26.9176 37.7658 27.0984 37.4705 27.0984Z" fill="#CAC9CF"/>
<path d="M37.4708 24.4454C37.4024 24.4454 37.3319 24.4354 37.2629 24.4147C33.0881 23.1644 28.6762 23.1644 24.5014 24.4147C24.1343 24.5241 23.7455 24.3301 23.6318 23.982C23.5173 23.6336 23.7204 23.2623 24.0855 23.1529C28.5326 21.8213 33.2317 21.8213 37.6788 23.1529C38.0439 23.2623 38.2471 23.6336 38.1326 23.982C38.0397 24.2646 37.7661 24.4454 37.4708 24.4454Z" fill="#CAC9CF"/>
<path d="M24.2932 21.8081C23.998 21.8081 23.7243 21.6272 23.6315 21.3448C23.5171 20.9963 23.7202 20.625 24.0853 20.5156C26.638 19.7516 29.2869 19.4264 31.9554 19.546C32.3374 19.5634 32.6333 19.8731 32.615 20.2379C32.5974 20.6034 32.2777 20.8824 31.889 20.8672C29.385 20.7546 26.8973 21.06 24.5011 21.7775C24.432 21.7981 24.3616 21.8081 24.2932 21.8081Z" fill="#CAC9CF"/>
<path d="M37.4705 21.808C37.4021 21.808 37.3316 21.798 37.2626 21.7773C36.3863 21.5148 35.482 21.3042 34.5751 21.1519C34.1979 21.0883 33.9459 20.7454 34.013 20.3856C34.0794 20.0262 34.4397 19.7857 34.8163 19.8493C35.7822 20.0118 36.7446 20.2358 37.6786 20.5155C38.0437 20.6249 38.2469 20.9963 38.1323 21.3447C38.0394 21.6272 37.7658 21.808 37.4705 21.808Z" fill="#CAC9CF"/>
<path d="M37.4708 19.1551C37.4024 19.1551 37.3319 19.1451 37.2629 19.1244C33.0881 17.8742 28.6762 17.8742 24.5014 19.1244C24.1343 19.2332 23.7455 19.0395 23.6318 18.6918C23.5173 18.3433 23.7204 17.972 24.0855 17.8626C28.5326 16.531 33.2317 16.531 37.6788 17.8626C38.0439 17.972 38.2471 18.3433 38.1326 18.6918C38.0397 18.9743 37.7661 19.1551 37.4708 19.1551Z" fill="#CAC9CF"/>
<path d="M24.2932 16.51C23.998 16.51 23.7243 16.3291 23.6315 16.0467C23.5171 15.6983 23.7202 15.3269 24.0853 15.2175C25.4805 14.7996 26.9245 14.5098 28.3786 14.356C28.7646 14.3118 29.1027 14.5779 29.1446 14.9401C29.1866 15.3031 28.9123 15.6301 28.5317 15.6702C27.167 15.8148 25.8103 16.087 24.5011 16.4793C24.432 16.4999 24.3616 16.51 24.2932 16.51Z" fill="#CAC9CF"/>
<path d="M37.4705 16.51C37.4021 16.51 37.3316 16.5 37.2626 16.4793C35.3046 15.8926 33.2713 15.5794 31.2184 15.5487C30.8351 15.5429 30.5297 15.2423 30.5357 14.8771C30.5418 14.5122 30.8764 14.2048 31.2401 14.2261C33.4264 14.259 35.5931 14.5927 37.6785 15.2174C38.0436 15.3269 38.2468 15.6982 38.1323 16.0466C38.0387 16.3291 37.7658 16.51 37.4705 16.51Z" fill="#CAC9CF"/>
<path d="M24.2932 13.8725C23.998 13.8725 23.7243 13.6916 23.6315 13.4092C23.5171 13.0607 23.7202 12.6894 24.0853 12.58C27.1073 11.6749 30.235 11.3843 33.3858 11.7185C33.7665 11.7585 34.0408 12.0856 33.9988 12.4486C33.9568 12.8112 33.6209 13.0798 33.2327 13.0326C30.277 12.7201 27.3383 12.9916 24.5011 13.8418C24.432 13.8625 24.3616 13.8725 24.2932 13.8725Z" fill="#CAC9CF"/>
<path d="M37.4708 13.8725C37.4024 13.8725 37.3319 13.8625 37.2629 13.8418C36.8226 13.7097 36.3709 13.5899 35.9191 13.485C35.5473 13.3985 35.319 13.0407 35.4098 12.6859C35.5006 12.331 35.8731 12.114 36.2483 12.1999C36.7285 12.3117 37.2094 12.4395 37.6787 12.58C38.0438 12.6894 38.247 13.0607 38.1325 13.4092C38.0396 13.6917 37.766 13.8725 37.4708 13.8725Z" fill="#CAC9CF"/>
<path d="M24.2932 11.2197C23.998 11.2197 23.7243 11.0386 23.6315 10.7561C23.5171 10.4073 23.7202 10.0364 24.086 9.92725C24.5628 9.7845 25.0437 9.65695 25.5157 9.54751C25.8855 9.46063 26.2627 9.67894 26.3535 10.0338C26.4443 10.3887 26.2153 10.7464 25.8435 10.8326C25.4006 10.9353 24.9488 11.0551 24.5004 11.1891C24.4313 11.2097 24.3616 11.2197 24.2932 11.2197Z" fill="#CAC9CF"/>
<path d="M37.4703 11.2196C37.4019 11.2196 37.3315 11.2096 37.2624 11.189C34.4246 10.3388 31.4872 10.0676 28.5308 10.3798C28.1474 10.4244 27.8067 10.1579 27.7647 9.79572C27.7228 9.43276 27.9971 9.10567 28.3777 9.06566C31.5271 8.73146 34.6555 9.0221 37.6782 9.92716C38.0433 10.0366 38.2465 10.4079 38.132 10.7563C38.0392 11.0388 37.7656 11.2196 37.4703 11.2196Z" fill="#CAC9CF"/>
<path d="M5.56742 27.0984C5.27214 27.0984 4.99853 26.9175 4.90568 26.635C4.79125 26.2866 4.99437 25.9153 5.35944 25.8059C6.06114 25.5957 6.78312 25.4161 7.5058 25.2718C7.88031 25.1969 8.24815 25.4251 8.3267 25.7833C8.40524 26.1407 8.16554 26.4911 7.79024 26.566C7.1116 26.7017 6.43366 26.8706 5.77531 27.0678C5.70621 27.0884 5.63582 27.0984 5.56742 27.0984Z" fill="#B4B6BC"/>
<path d="M18.7447 27.0984C18.6763 27.0984 18.6058 27.0884 18.5368 27.0677C15.9204 26.2841 13.2072 25.9905 10.477 26.1978C10.0842 26.2243 9.76109 25.9547 9.73066 25.5908C9.70084 25.2266 9.98537 24.9082 10.3673 24.8791C13.281 24.6608 16.1657 24.9715 18.9527 25.8059C19.3178 25.9153 19.521 26.2866 19.4064 26.635C19.3136 26.9176 19.04 27.0984 18.7447 27.0984Z" fill="#B4B6BC"/>
<path d="M18.7447 24.4454C18.6763 24.4454 18.6059 24.4354 18.5369 24.4147C14.362 23.1644 9.95012 23.1644 5.77531 24.4147C5.40686 24.5241 5.01943 24.3301 4.90568 23.982C4.79125 23.6336 4.99437 23.2623 5.35944 23.1529C9.80656 21.8213 14.5056 21.8213 18.9527 23.1529C19.3178 23.2623 19.521 23.6336 19.4065 23.982C19.3136 24.2646 19.04 24.4454 18.7447 24.4454Z" fill="#B4B6BC"/>
<path d="M5.56742 21.8081C5.27214 21.8081 4.99853 21.6272 4.90568 21.3448C4.79125 20.9963 4.99437 20.625 5.35944 20.5156C7.91213 19.7516 10.563 19.4264 13.2296 19.546C13.6115 19.5634 13.9075 19.8731 13.8892 20.2379C13.8709 20.6034 13.5478 20.8824 13.1632 20.8672C10.6585 20.7546 8.17152 21.06 5.77522 21.7775C5.70621 21.7981 5.63582 21.8081 5.56742 21.8081Z" fill="#B4B6BC"/>
<path d="M18.7445 21.808C18.6761 21.808 18.6056 21.798 18.5366 21.7773C17.6602 21.5148 16.756 21.3042 15.8491 21.1519C15.4718 21.0883 15.2198 20.7454 15.2869 20.3856C15.3527 20.0262 15.7143 19.7857 16.0902 19.8493C17.0561 20.0118 18.0185 20.2358 18.9525 20.5155C19.3176 20.6249 19.5208 20.9963 19.4063 21.3447C19.3133 21.6272 19.0397 21.808 18.7445 21.808Z" fill="#B4B6BC"/>
<path d="M5.56742 19.1551C5.27214 19.1551 4.99853 18.9742 4.90568 18.6918C4.79125 18.3434 4.99437 17.9721 5.35944 17.8626C9.302 16.6825 13.5086 16.551 17.5216 17.4829C17.8941 17.5694 18.1224 17.9272 18.0316 18.282C17.9408 18.6366 17.5636 18.8526 17.1938 18.768C13.4253 17.892 9.47669 18.0163 5.77531 19.1245C5.70621 19.1451 5.63582 19.1551 5.56742 19.1551Z" fill="#B4B6BC"/>
<path d="M5.56742 16.51C5.27214 16.51 4.99853 16.3291 4.90568 16.0467C4.79125 15.6983 4.99437 15.3269 5.35944 15.2175C6.75468 14.7996 8.19865 14.5098 9.65276 14.356C10.0354 14.3118 10.3768 14.5779 10.4188 14.9401C10.4607 15.3031 10.1864 15.6301 9.80586 15.6702C8.44113 15.8148 7.08447 16.087 5.77531 16.4793C5.70621 16.4999 5.63582 16.51 5.56742 16.51Z" fill="#B4B6BC"/>
<path d="M17.3588 16.1416C17.3046 16.1416 17.249 16.1355 17.1942 16.1228C15.6568 15.7657 14.0747 15.5723 12.4931 15.5487C12.1097 15.5429 11.8043 15.2423 11.8104 14.8771C11.8165 14.5122 12.1158 14.2048 12.5148 14.2261C14.1998 14.2517 15.8843 14.4573 17.522 14.8377C17.8945 14.9242 18.1228 15.282 18.032 15.6368C17.9547 15.9391 17.671 16.1416 17.3588 16.1416Z" fill="#B4B6BC"/>
<path d="M5.56742 13.8725C5.27214 13.8725 4.99853 13.6916 4.90568 13.4092C4.79125 13.0607 4.99437 12.6894 5.35944 12.58C8.38218 11.6749 11.5099 11.3843 14.66 11.7185C15.0407 11.7585 15.315 12.0856 15.2729 12.4486C15.231 12.8112 14.8923 13.0798 14.5069 13.0326C11.5512 12.7201 8.61244 12.9916 5.77522 13.8418C5.70621 13.8625 5.63582 13.8725 5.56742 13.8725Z" fill="#B4B6BC"/>
<path d="M5.56717 11.2197C5.27189 11.2197 4.99828 11.0386 4.90544 10.7561C4.791 10.4073 4.99412 10.0364 5.35988 9.92725C5.8367 9.7845 6.31759 9.65695 6.78963 9.54751C7.15878 9.46063 7.53667 9.67894 7.62744 10.0338C7.71821 10.3887 7.48925 10.7464 7.11742 10.8326C6.6745 10.9353 6.22274 11.0551 5.77437 11.1891C5.70527 11.2097 5.63557 11.2197 5.56717 11.2197Z" fill="#B4B6BC"/>
<path d="M17.3583 10.8509C17.3042 10.8509 17.2486 10.8448 17.1938 10.8321C14.7698 10.2693 12.2841 10.1179 9.80517 10.3797C9.4245 10.4243 9.08111 10.1585 9.03915 9.79565C8.99719 9.43269 9.27149 9.1056 9.65207 9.06559C12.2915 8.78529 14.9404 8.94805 17.5215 9.54701C17.894 9.63356 18.1223 9.99131 18.0315 10.3462C17.9543 10.6484 17.6705 10.8509 17.3583 10.8509Z" fill="#B4B6BC"/>
<path d="M17.3576 17.8602C17.3577 18.1242 17.6663 18.2818 17.8968 18.1353L19.4383 17.1554L20.9798 18.1353C21.2102 18.2818 21.5189 18.1243 21.5189 17.8602V7.66557C21.5189 7.40436 21.3591 7.16323 21.1088 7.0571C20.0288 6.59915 18.919 6.23189 17.7917 5.94795C17.5718 5.89256 17.3556 6.05475 17.3557 6.27165L17.3576 17.8602Z" fill="#27A857"/>
</svg>
