<svg width="43" height="41" viewBox="0 0 43 41" fill="none" xmlns="http://www.w3.org/2000/svg">
<g clip-path="url(#clip0_161_489)">
<path d="M31.21 18.1854V18.6494C31.21 19.218 31.3061 19.7829 31.4947 20.3223L32.597 23.4757H34.6777V16.2014H33.2906C32.1415 16.2015 31.21 17.0896 31.21 18.1854Z" fill="#5A4146"/>
<path d="M40.706 19.5592L39.5324 23.4758L33.984 18.8468C33.2179 18.8468 32.5969 18.2547 32.5969 17.5243C32.5969 16.4286 33.5285 15.5404 34.6776 15.5404H39.5324C40.2985 15.5404 40.9194 16.1326 40.9194 16.863V18.1059C40.9195 18.5974 40.8476 19.0865 40.706 19.5592Z" fill="#694B4B"/>
<path d="M38.1444 25.4601H33.9832V28.3869H38.1444V25.4601Z" fill="#E6AF78"/>
<path d="M33.9839 26.6743C34.6271 26.9235 35.3286 27.0638 36.0645 27.0638C36.8005 27.0638 37.5019 26.9235 38.1451 26.6743V25.4596H33.9839V26.6743Z" fill="#D29B6E"/>
<path d="M41.491 27.9754L38.145 27.0639L36.0646 28.3803L33.9839 27.0638L30.6382 27.9754C29.7449 28.2187 29.1292 28.9972 29.1292 29.8829V34.7177C29.1292 35.0829 29.4396 35.379 29.8227 35.379H42.3065C42.6896 35.379 43.0001 35.0829 43.0001 34.7177V29.8829C43.0001 28.9971 42.3842 28.2187 41.491 27.9754Z" fill="#EB763C"/>
<path d="M36.7579 35.379H35.3708L35.7176 28.3865H36.4112L36.7579 35.379Z" fill="#BFC8D0"/>
<path d="M36.0643 26.121C33.7661 26.121 31.9031 24.3445 31.9031 22.1533V21.3785C31.9031 21.0278 32.0492 20.6913 32.3093 20.4433L33.567 19.2441C33.8333 18.9902 34.1974 18.8442 34.5739 18.8555C36.7909 18.9222 38.7533 19.375 39.826 20.374C40.0886 20.6186 40.2257 20.9606 40.2257 21.3106V22.1533C40.2257 24.3446 38.3626 26.121 36.0643 26.121Z" fill="#F0C087"/>
<path d="M33.9837 21.5425C33.9837 20.7796 34.6556 20.1733 35.454 20.2218C36.8541 20.307 38.9317 20.5301 40.2064 21.1147C40.1648 20.8357 40.0391 20.5723 39.826 20.3739C38.7533 19.3749 36.7909 18.9221 34.5739 18.8553L34.5738 18.8554V18.8553C34.1974 18.8441 33.8332 18.9901 33.567 19.244L32.3094 20.4431C32.0492 20.6911 31.9031 21.0275 31.9031 21.3783V22.1531C31.9031 23.9625 33.1747 25.486 34.9114 25.9631C34.3333 25.2831 33.9838 24.4198 33.9838 23.4756L33.9837 21.5425Z" fill="#E6AF78"/>
<path d="M40.2261 31.8533C40.2261 31.3271 40.4453 30.8226 40.8355 30.4505L42.6207 28.7483C42.8593 29.0735 43.0002 29.465 43.0002 29.8829V34.7177C43.0002 35.083 42.6898 35.379 42.3067 35.379H40.2261V31.8533Z" fill="#E75D18"/>
<path d="M36.4112 29.709H35.7176C35.5261 29.709 35.3708 29.561 35.3708 29.3784V28.3865H36.7579V29.3784C36.7579 29.561 36.6027 29.709 36.4112 29.709Z" fill="white"/>
<path d="M36.0642 28.3804L34.8887 29.2365C34.6862 29.384 34.3934 29.3249 34.2711 29.1117L33.2166 27.2755L33.641 26.6582C33.7352 26.5213 33.9358 26.498 34.0617 26.6093L36.0642 28.3804Z" fill="#E75D18"/>
<path d="M36.064 28.3804L37.2395 29.2366C37.442 29.3841 37.7347 29.325 37.8571 29.1119L38.9116 27.2757L38.4872 26.6583C38.393 26.5214 38.1924 26.4981 38.0665 26.6094L36.064 28.3804Z" fill="#E75D18"/>
<path d="M12.415 25.8448C11.8223 24.3475 11.3522 21.7735 11.2507 20.4334C11.0575 17.8833 9.04199 15.8044 6.31737 15.8044C3.59275 15.8044 1.57721 17.8834 1.38405 20.4334C1.28251 21.7735 0.812448 24.3475 0.21977 25.8448C0.0891748 26.1749 0.239927 26.5388 0.580819 26.6862C1.21591 26.9606 2.56999 27.4983 4.20306 27.7077H8.43159C10.057 27.4978 11.4206 26.9598 12.0538 26.6862C12.3948 26.5388 12.5456 26.1749 12.415 25.8448Z" fill="#5A4146"/>
<path d="M12.0535 26.6863C12.3943 26.5389 12.5452 26.175 12.4145 25.8449C11.8219 24.3476 11.3517 21.7737 11.2503 20.4336C11.0572 17.8834 9.04159 15.8046 6.31705 15.8046C6.31017 15.8046 6.30336 15.8046 6.29648 15.8046C4.20585 15.8127 3.46704 18.5313 5.26674 19.5456C5.37483 19.6066 5.44412 19.6359 5.44412 19.6359L7.02042 27.7078H8.43128C10.0567 27.4977 11.4203 26.9598 12.0535 26.6863Z" fill="#694B4B"/>
<path d="M11.3337 29.0354L9.08929 27.9655C8.61932 27.7414 8.32243 27.2834 8.32252 26.7824L8.32268 24.7985H4.16126V26.7825C4.16126 27.2834 3.86446 27.7413 3.39448 27.9654L1.15008 29.0354C0.445201 29.3714 0 30.0583 0 30.8097V34.7177C0 35.0828 0.31049 35.3789 0.693543 35.3789H11.7903C12.1734 35.3789 12.4839 35.0828 12.4839 34.7177V30.8098C12.4839 30.0583 12.0386 29.3714 11.3337 29.0354Z" fill="#E6AF78"/>
<path d="M6.24195 27.4435C6.98874 27.4435 7.70403 27.2967 8.35978 27.0354C8.34256 26.952 8.32249 26.8692 8.32249 26.7823L8.32266 24.7983H4.16124V26.7824C4.16124 26.8697 4.14116 26.953 4.12378 27.0367C4.77995 27.2966 5.49491 27.4435 6.24195 27.4435Z" fill="#D29B6E"/>
<path d="M11.3337 29.0354L9.7348 28.2732C8.99338 29.3648 7.7075 30.0888 6.24197 30.0888C4.77644 30.0888 3.49047 29.3648 2.74906 28.2731L1.15017 29.0354C0.445285 29.3714 0 30.0583 0 30.8097V34.7177C0 35.0829 0.31049 35.379 0.693543 35.379H11.7903C12.1734 35.379 12.4839 35.0829 12.4839 34.7177V30.8098C12.4839 30.0583 12.0386 29.3714 11.3337 29.0354Z" fill="#EB763C"/>
<path d="M6.24178 26.121C4.12605 26.121 2.37918 24.6155 2.11504 22.6668C2.07675 22.3845 2.2191 22.1076 2.48567 21.9794C2.80498 21.8259 3.26899 21.5669 3.71327 21.1889C4.20802 20.768 4.49827 20.3241 4.66221 19.9983C4.80338 19.7177 5.1279 19.559 5.44418 19.636C7.88611 20.2298 9.54859 21.4412 10.1518 21.9357C10.3137 22.0685 10.407 22.2643 10.3904 22.4674C10.2223 24.5118 8.42916 26.121 6.24178 26.121Z" fill="#F0C087"/>
<path d="M10.1521 21.9356C9.54905 21.441 7.8865 20.2297 5.44457 19.6358C5.12828 19.5589 4.80377 19.7176 4.66259 19.9982C4.53846 20.245 4.33329 20.5594 4.02884 20.8803C4.02876 20.8811 4.02851 20.8818 4.02842 20.8826C3.93394 20.9847 3.83333 21.087 3.71373 21.1889C3.26946 21.5669 2.80544 21.8258 2.48613 21.9794C2.21957 22.1076 2.0773 22.3845 2.11551 22.6669C2.35277 24.417 3.78907 25.81 5.61136 26.0757C4.78101 25.5371 4.16162 24.7964 4.16162 23.4759V22.5329C4.31918 22.422 4.47782 22.3114 4.63723 22.1758C5.02271 21.8477 5.35924 21.4684 5.62908 21.06C7.49715 21.6158 8.76363 22.5416 9.24377 22.9353C9.3752 23.0452 9.7014 23.3318 10.083 23.6732C10.2472 23.2964 10.3558 22.8922 10.3907 22.4674C10.4074 22.2642 10.3141 22.0684 10.1521 21.9356Z" fill="#E6AF78"/>
<path d="M0.422777 29.6177C0.155623 29.9558 0 30.3705 0 30.8097V34.7177C0 35.0829 0.31049 35.379 0.693543 35.379H2.77417V32.0469C2.77417 31.6452 2.5826 31.2651 2.25355 31.0142L0.422777 29.6177Z" fill="#E75D18"/>
<path d="M31.4644 28.1329L25.6615 26.1208L21.5003 27.4435L17.339 26.1209L11.5361 28.133C10.4398 28.5131 9.70996 29.5066 9.70996 30.6188V34.7177C9.70996 35.0829 10.0205 35.379 10.4035 35.379H32.597C32.9801 35.379 33.2906 35.0829 33.2906 34.7177V30.6188C33.2906 29.5065 32.5608 28.513 31.4644 28.1329Z" fill="#27A857"/>
<path d="M20.7736 28.7661L20.113 35.3789H22.8872L22.2267 28.7661H20.7736Z" fill="#707487"/>
<path d="M22.2284 29.6747H20.7721C20.504 29.6747 20.2866 29.4675 20.2866 29.2118V27.4436H22.7139V29.2118C22.714 29.4674 22.4966 29.6747 22.2284 29.6747Z" fill="#5B5D6E"/>
<path d="M32.5439 28.8165C33.0122 29.2958 33.2904 29.9341 33.2904 30.6188V34.7176C33.2904 35.0829 32.9799 35.3789 32.5969 35.3789H29.1292V33.1681C29.1292 32.4666 29.4214 31.7938 29.9417 31.2977L32.5439 28.8165Z" fill="#218D49"/>
<path d="M29.129 12.4833V6.94354C29.129 6.21307 28.5079 5.62097 27.7419 5.62097H19.4193C16.355 5.62097 13.8708 7.98952 13.8708 10.9113V12.4833C13.8708 13.1941 13.991 13.9003 14.2268 14.5745L14.4576 15.2349C14.5284 15.4372 14.5644 15.649 14.5644 15.8622V16.2016H28.4354V15.8622C28.4354 15.649 28.4714 15.4372 28.5421 15.2349L28.773 14.5745C29.0088 13.9002 29.129 13.194 29.129 12.4833Z" fill="#5A4146"/>
<path d="M17.3386 8.30743C17.3386 9.79112 18.6001 10.9939 20.1561 10.9939H20.5462L20.7345 16.2015H28.4353V15.8622C28.4353 15.6489 28.4713 15.4371 28.5421 15.2348L28.7729 14.5744C29.0087 13.9002 29.1289 13.194 29.1289 12.4833V6.94354C29.1289 6.21307 28.5078 5.62097 27.7418 5.62097H20.1561C18.6001 5.62097 17.3386 6.82374 17.3386 8.30743Z" fill="#694B4B"/>
<path d="M25.6612 21.4922H17.3384V27.4436H25.6612V21.4922Z" fill="#E6AF78"/>
<path d="M17.3385 23.7279C18.5636 24.4047 19.982 24.7982 21.4997 24.7982C23.0174 24.7982 24.4359 24.4047 25.661 23.7279V21.4918H17.3384L17.3385 23.7279Z" fill="#D29B6E"/>
<path d="M21.5 27.4434L19.288 29.5525C18.9907 29.836 18.4993 29.804 18.2452 29.4847L15.9517 26.6032L16.5516 25.3977C16.7286 25.042 17.1903 24.9117 17.5419 25.1183L21.5 27.4434Z" fill="#218D49"/>
<path d="M21.5 27.4434L23.712 29.5525C24.0093 29.836 24.5007 29.804 24.7548 29.4847L27.0483 26.6032L26.4484 25.3977C26.2714 25.042 25.8097 24.9117 25.4581 25.1183L21.5 27.4434Z" fill="#218D49"/>
<path d="M21.5 23.4758C17.6696 23.4758 14.5645 20.5151 14.5645 16.8629V16.0881C14.5645 15.7374 14.7106 15.401 14.9707 15.1529L15.5452 14.6051C15.8053 14.3571 15.9515 14.0206 15.9515 13.6698V12.0846C15.9515 11.7784 16.1671 11.5124 16.4796 11.442C18.1199 11.0726 23.2242 10.1976 26.6979 12.6335C26.9235 12.7917 27.0482 13.0515 27.0482 13.3185V13.6698C27.0482 14.0206 27.1944 14.357 27.4545 14.6051L28.029 15.1529C28.2891 15.4009 28.4352 15.7373 28.4352 16.0881V16.8629C28.4355 20.5151 25.3303 23.4758 21.5 23.4758Z" fill="#F0C087"/>
<path d="M26.698 12.6335C24.2549 10.9203 21.0097 10.8461 18.7258 11.0807C17.7624 11.1795 16.9664 11.3324 16.4798 11.442C16.1673 11.5124 15.9516 11.7784 15.9516 12.0846V13.6697C15.9516 14.0206 15.8055 14.357 15.5453 14.605L14.9708 15.1529C14.7106 15.4009 14.5645 15.7373 14.5645 16.0882V16.8628C14.5645 20.2441 17.2276 23.0276 20.6619 23.4228C19.4652 22.2346 18.7257 20.6243 18.7257 18.8467V14.0131C18.7257 13.3429 19.2483 12.7829 19.9457 12.6995C21.6101 12.5005 24.6585 12.3809 27.0482 13.6699V13.3185C27.0484 13.0515 26.9234 12.7916 26.698 12.6335Z" fill="#E6AF78"/>
<path d="M10.4565 28.8165C9.9882 29.2958 9.70996 29.9341 9.70996 30.6188V34.7176C9.70996 35.0829 10.0205 35.3789 10.4035 35.3789H13.8712V33.1681C13.8712 32.4666 13.5789 31.7938 13.0587 31.2977L10.4565 28.8165Z" fill="#218D49"/>
</g>
<defs>
<clipPath id="clip0_161_489">
<rect width="43" height="41" fill="white"/>
</clipPath>
</defs>
</svg>
